<svg width="185" height="56" viewBox="0 0 185 56" fill="none" xmlns="http://www.w3.org/2000/svg">
<!-- Interlocking S mark - bottom shape -->
<path fill-rule="evenodd" clip-rule="evenodd" d="M17.4097 45.3592L11.2856 39.3408L11.3229 39.3408L20.9198 29.9095L26.6705 35.561C28.4007 37.09 32.8021 39.3261 36.5662 36.038C37.9105 34.9004 39.9942 31.7004 37.5744 28.0012L32.6079 23.1205L35.0725 20.6984L39.7402 25.2489C41.4455 27.3896 43.8329 32.8894 39.7402 37.7628L32.6079 44.772C30.2305 47.0718 23.8624 50.4088 17.4097 45.3592ZM29.5832 42.9372L31.4876 41.0656C28.082 40.772 25.1644 38.7414 24.1312 37.7628L20.8451 34.5334L15.916 39.3775L19.7622 42.9372C23.8549 45.9611 28.0148 44.1971 29.5832 42.9372Z" fill="url(#greenGradient1)"/>
<!-- Interlocking S mark - top shape -->
<path fill-rule="evenodd" clip-rule="evenodd" d="M32.5903 10.6408L38.7144 16.6592H38.6771L29.0802 26.0905L23.3295 20.439C21.5993 18.91 17.1979 16.6739 13.4338 19.962C12.0895 21.0996 10.0058 24.2996 12.4256 27.9988L17.3921 32.8795L14.9275 35.3016L10.2598 30.7511C8.5545 28.6104 6.1671 23.1106 10.2598 18.2372L17.3921 11.228C19.7695 8.92822 26.1376 5.59117 32.5903 10.6408ZM20.4168 13.0628L18.5124 14.9344C21.918 15.228 24.8356 17.2586 25.8688 18.2372L29.1549 21.4666L34.084 16.6225L30.2378 13.0628C26.1451 10.0389 21.9852 11.8029 20.4168 13.0628Z" fill="url(#greenGradient2)"/>
<!-- Letter: s -->
<path d="M53.4436 24.2833C53.4436 24.9081 53.7576 25.4144 54.3857 25.8023C55.0137 26.1686 55.7718 26.4702 56.6597 26.7072C57.5477 26.9227 58.4356 27.1812 59.3236 27.4829C60.2116 27.763 60.9696 28.2586 61.5977 28.9696C62.2257 29.6591 62.5398 30.5532 62.5398 31.6521C62.5398 33.1172 61.9658 34.2915 60.818 35.1749C59.6918 36.0583 58.2407 36.5 56.4648 36.5C54.8838 36.5 53.5302 36.1553 52.404 35.4658C51.2778 34.7763 50.4765 33.8606 50 32.7186L52.4365 31.3289C52.6964 32.1046 53.1837 32.7186 53.8984 33.1711C54.6131 33.6236 55.4685 33.8498 56.4648 33.8498C57.3961 33.8498 58.1649 33.6774 58.7713 33.3327C59.3777 32.9664 59.681 32.4062 59.681 31.6521C59.681 31.0273 59.3669 30.5317 58.7388 30.1654C58.1108 29.7776 57.3528 29.4759 56.4648 29.2605C55.5768 29.0234 54.6889 28.7541 53.8009 28.4525C52.913 28.1508 52.1549 27.6553 51.5269 26.9658C50.8988 26.2763 50.5848 25.3929 50.5848 24.3156C50.5848 22.9151 51.1262 21.7624 52.2091 20.8574C53.3136 19.9525 54.6889 19.5 56.3349 19.5C57.656 19.5 58.8255 19.8016 59.8434 20.4049C60.883 20.9867 61.6626 21.8054 62.1824 22.8612L59.8109 24.1863C59.2261 22.8074 58.0675 22.1179 56.3349 22.1179C55.5335 22.1179 54.8513 22.3118 54.2882 22.6996C53.7251 23.0659 53.4436 23.5938 53.4436 24.2833Z" fill="#1a1a2e"/>
<!-- Letter: e -->
<path d="M67.4236 29.2928C67.7052 30.7364 68.3657 31.8568 69.4053 32.654C70.4665 33.4512 71.766 33.8498 73.3037 33.8498C75.4478 33.8498 77.0071 33.0634 77.9817 31.4905L80.3857 32.8479C78.8047 35.2826 76.4224 36.5 73.2387 36.5C70.6615 36.5 68.5607 35.7028 66.9363 34.1084C65.3337 32.4924 64.5323 30.4563 64.5323 28C64.5323 25.5653 65.3228 23.5399 66.9039 21.924C68.4849 20.308 70.5315 19.5 73.0438 19.5C75.4261 19.5 77.3645 20.3403 78.8589 22.0209C80.3749 23.68 81.1329 25.6838 81.1329 28.0323C81.1329 28.4417 81.1004 28.8618 81.0354 29.2928H67.4236ZM73.0438 22.1502C71.5278 22.1502 70.2716 22.5811 69.2754 23.443C68.2791 24.2833 67.6619 25.4144 67.4236 26.8365H78.2741C78.0359 25.3067 77.4295 24.1432 76.4549 23.346C75.4803 22.5488 74.3432 22.1502 73.0438 22.1502Z" fill="#1a1a2e"/>
<!-- Letter: s -->
<path d="M86.1838 24.2833C86.1838 24.9081 86.4978 25.4144 87.1259 25.8023C87.754 26.1686 88.512 26.4702 89.3999 26.7072C90.2879 26.9227 91.1759 27.1812 92.0638 27.4829C92.9518 27.763 93.7098 28.2586 94.3379 28.9696C94.966 29.6591 95.28 30.5532 95.28 31.6521C95.28 33.1172 94.7061 34.2915 93.5582 35.1749C92.432 36.0583 90.9809 36.5 89.205 36.5C87.624 36.5 86.2704 36.1553 85.1442 35.4658C84.018 34.7763 83.2167 33.8606 82.7402 32.7186L85.1767 31.3289C85.4366 32.1046 85.9239 32.7186 86.6386 33.1711C87.3533 33.6236 88.2088 33.8498 89.205 33.8498C90.1363 33.8498 90.9051 33.6774 91.5116 33.3327C92.118 32.9664 92.4212 32.4062 92.4212 31.6521C92.4212 31.0273 92.1071 30.5317 91.4791 30.1654C90.851 29.7776 90.093 29.4759 89.205 29.2605C88.3171 29.0234 87.4291 28.7541 86.5411 28.4525C85.6532 28.1508 84.8952 27.6553 84.2671 26.9658C83.639 26.2763 83.325 25.3929 83.325 24.3156C83.325 22.9151 83.8664 21.7624 84.9493 20.8574C86.0538 19.9525 87.4291 19.5 89.0751 19.5C90.3962 19.5 91.5657 19.8016 92.5836 20.4049C93.6232 20.9867 94.4029 21.8054 94.9226 22.8612L92.5511 24.1863C91.9664 22.8074 90.8077 22.1179 89.0751 22.1179C88.2737 22.1179 87.5915 22.3118 87.0284 22.6996C86.4653 23.0659 86.1838 23.5938 86.1838 24.2833Z" fill="#1a1a2e"/>
<!-- Letter: a -->
<path d="M111.632 19.9202H114.458V36.0798H111.632V33.3004C110.224 35.4335 108.177 36.5 105.492 36.5C103.218 36.5 101.279 35.6812 99.6766 34.0437C98.0739 32.3847 97.2726 30.3701 97.2726 28C97.2726 25.6299 98.0739 23.6261 99.6766 21.9886C101.279 20.3295 103.218 19.5 105.492 19.5C108.177 19.5 110.224 20.5665 111.632 22.6996V19.9202ZM105.849 33.7852C107.495 33.7852 108.87 33.2357 109.975 32.1369C111.079 31.0165 111.632 29.6375 111.632 28C111.632 26.3625 111.079 24.9943 109.975 23.8954C108.87 22.775 107.495 22.2148 105.849 22.2148C104.225 22.2148 102.86 22.775 101.756 23.8954C100.651 24.9943 100.099 26.3625 100.099 28C100.099 29.6375 100.651 31.0165 101.756 32.1369C102.86 33.2357 104.225 33.7852 105.849 33.7852Z" fill="#1a1a2e"/>
<!-- Letter: m -->
<path d="M136.283 19.5C138.102 19.5 139.575 20.0925 140.701 21.2776C141.827 22.4411 142.39 24.0247 142.39 26.0285V36.0798H139.564V26.1255C139.564 24.8758 139.239 23.9062 138.589 23.2167C137.939 22.5272 137.073 22.1825 135.99 22.1825C134.777 22.1825 133.803 22.5919 133.067 23.4106C132.352 24.2079 131.994 25.436 131.994 27.0951V36.0798H129.168V26.1255C129.168 24.8758 128.854 23.9062 128.226 23.2167C127.62 22.5272 126.786 22.1825 125.725 22.1825C124.533 22.1825 123.537 22.5919 122.736 23.4106C121.956 24.2294 121.566 25.4575 121.566 27.0951V36.0798H118.74V19.9202H121.566V22.0856C122.671 20.3619 124.284 19.5 126.407 19.5C128.594 19.5 130.186 20.4157 131.182 22.2471C132.309 20.4157 134.009 19.5 136.283 19.5Z" fill="#1a1a2e"/>
<!-- Letter: e -->
<path d="M148.291 29.2928C148.572 30.7364 149.233 31.8568 150.272 32.654C151.334 33.4512 152.633 33.8498 154.171 33.8498C156.315 33.8498 157.874 33.0634 158.849 31.4905L161.253 32.8479C159.672 35.2826 157.289 36.5 154.106 36.5C151.529 36.5 149.428 35.7028 147.803 34.1084C146.201 32.4924 145.399 30.4563 145.399 28C145.399 25.5653 146.19 23.5399 147.771 21.924C149.352 20.308 151.399 19.5 153.911 19.5C156.293 19.5 158.232 20.3403 159.726 22.0209C161.242 23.68 162 25.6838 162 28.0323C162 28.4417 161.968 28.8618 161.903 29.2928H148.291ZM153.911 22.1502C152.395 22.1502 151.139 22.5811 150.142 23.443C149.146 24.2833 148.529 25.4144 148.291 26.8365H159.141C158.903 25.3067 158.297 24.1432 157.322 23.346C156.347 22.5488 155.21 22.1502 153.911 22.1502Z" fill="#1a1a2e"/>
<!-- Number: 3 - matching the size of other letters
     CONTROLS:
     - x="165" = horizontal position (increase to move right, decrease to move left)
     - y="36.5" = vertical position (increase to move down, decrease to move up)  
     - font-size="24" = height of the "3" (increase for larger, decrease for smaller)
     - font-weight="500" = thickness (400=normal, 500=medium, 600=semibold, 700=bold)
-->
<text x="163" y="36.5" font-family="system-ui, -apple-system, BlinkMacSystemFont, 'Segoe UI', sans-serif" font-size="28" font-weight="500" fill="#1a1a2e">3</text>
<defs>
<!-- Green gradient for bottom S shape -->
<linearGradient id="greenGradient1" x1="29.5832" y1="48.0015" x2="22.933" y2="21.8899" gradientUnits="userSpaceOnUse">
<stop stop-color="#5CB88A"/>
<stop offset="0.5" stop-color="#36736A"/>
<stop offset="1" stop-color="#1B5E4A"/>
</linearGradient>
<!-- Green gradient for top S shape -->
<linearGradient id="greenGradient2" x1="9.56837" y1="11.2294" x2="18.9961" y2="33.3677" gradientUnits="userSpaceOnUse">
<stop stop-color="#1B5E4A"/>
<stop offset="0.5" stop-color="#36736A"/>
<stop offset="1" stop-color="#5CB88A"/>
</linearGradient>
</defs>
</svg>

